<svg width="80" height="89" viewBox="0 0 80 89" fill="none" xmlns="http://www.w3.org/2000/svg">
<path d="M40.0936 0.769409C46.8853 0.76916 53.4127 3.40126 58.3044 8.1127C63.1962 12.8241 66.0714 19.2481 66.3261 26.035L66.3436 27.0194H70.7186C72.9261 27.0187 75.0524 27.8524 76.671 29.3535C78.2897 30.8545 79.2812 32.9119 79.4468 35.1132L79.4686 35.7694V79.5194C79.4693 81.7269 78.6356 83.8531 77.1346 85.4718C75.6336 87.0905 73.5762 88.082 71.3749 88.2475L70.7186 88.2694H9.46863C7.26111 88.2701 5.1349 87.4364 3.51623 85.9354C1.89756 84.4343 0.906068 82.377 0.740504 80.1757L0.718628 79.5194V35.7694C0.71793 33.5619 1.55166 31.4357 3.05268 29.817C4.5537 28.1983 6.61107 27.2068 8.81238 27.0413L9.46863 27.0194H13.8436C13.8436 20.0575 16.6092 13.3807 21.5321 8.45786C26.4549 3.53503 33.1317 0.769409 40.0936 0.769409ZM70.7186 35.7694H9.46863V79.5194H70.7186V35.7694ZM40.0936 44.5194C41.96 44.52 43.7772 45.1173 45.2799 46.2241C46.7826 47.3309 47.8921 48.8892 48.4463 50.6714C49.0004 52.4535 48.9702 54.3662 48.3601 56.13C47.7499 57.8938 46.5918 59.4162 45.0549 60.475L44.4686 60.8469V66.3944C44.4674 67.5095 44.0404 68.582 43.2749 69.3929C42.5094 70.2037 41.4632 70.6917 40.35 70.757C39.2368 70.8224 38.1407 70.4602 37.2856 69.7445C36.4305 69.0288 35.881 68.0136 35.7493 66.9063L35.7186 66.3944V60.8469C34.0506 59.8838 32.747 58.3972 32.01 56.6177C31.2729 54.8382 31.1437 52.8652 31.6422 51.0047C32.1407 49.1442 33.2392 47.5002 34.7672 46.3277C36.2953 45.1551 38.1675 44.5195 40.0936 44.5194ZM40.0936 9.51941C35.4523 9.51941 31.0011 11.3632 27.7193 14.645C24.4374 17.9269 22.5936 22.3781 22.5936 27.0194H57.5936C57.5936 22.3781 55.7499 17.9269 52.468 14.645C49.1861 11.3632 44.7349 9.51941 40.0936 9.51941Z" fill="black"/>
</svg>
